<svg width="190" height="32" viewBox="0 0 190 32" fill="none" xmlns="http://www.w3.org/2000/svg">
  <path d="M38.08 23V8.2H45.808C47.152 8.2 48.248 8.472 49.096 9.016C49.96 9.544 50.6 10.272 51.016 11.2C51.432 12.112 51.64 13.152 51.64 14.32C51.64 15.472 51.432 16.512 51.016 17.44C50.6 18.368 49.96 19.104 49.096 19.648C48.248 20.176 47.152 20.44 45.808 20.44H41.2V23H38.08ZM41.2 17.68H45.544C46.392 17.68 47.04 17.392 47.488 16.816C47.952 16.224 48.184 15.392 48.184 14.32C48.184 13.232 47.952 12.4 47.488 11.824C47.04 11.232 46.392 10.936 45.544 10.936H41.2V17.68ZM58.936 23.24C57.56 23.24 56.352 22.952 55.312 22.376C54.272 21.8 53.464 20.992 52.888 19.952C52.312 18.912 52.024 17.704 52.024 16.328C52.024 14.952 52.312 13.744 52.888 12.704C53.464 11.664 54.272 10.856 55.312 10.28C56.352 9.704 57.56 9.416 58.936 9.416C60.312 9.416 61.52 9.704 62.56 10.28C63.6 10.856 64.416 11.664 65.008 12.704C65.584 13.744 65.872 14.952 65.872 16.328C65.872 17.704 65.584 18.912 65.008 19.952C64.416 20.992 63.6 21.8 62.56 22.376C61.52 22.952 60.312 23.24 58.936 23.24ZM58.936 20.512C59.832 20.512 60.584 20.176 61.192 19.504C61.8 18.816 62.104 17.768 62.104 16.328C62.104 14.888 61.8 13.84 61.192 13.168C60.584 12.48 59.832 12.136 58.936 12.136C58.04 12.136 57.288 12.48 56.68 13.168C56.072 13.84 55.768 14.888 55.768 16.328C55.768 17.768 56.072 18.816 56.68 19.504C57.288 20.176 58.04 20.512 58.936 20.512ZM76.4 23L73.928 18.472H71.216V23H68.096V8.2H75.584C76.928 8.2 78.024 8.448 78.872 8.944C79.736 9.44 80.36 10.112 80.744 10.96C81.144 11.808 81.344 12.744 81.344 13.768C81.344 14.92 81.056 15.952 80.48 16.864C79.92 17.776 79.056 18.4 77.888 18.736L80.672 23H76.4ZM71.216 16.024H75.344C76.176 16.024 76.8 15.8 77.216 15.352C77.632 14.888 77.84 14.288 77.84 13.552C77.84 12.848 77.632 12.28 77.216 11.848C76.8 11.4 76.176 11.176 75.344 11.176H71.216V16.024ZM87.8 23H84.752V9.656H87.8V14.8H93.584V9.656H96.632V23H93.584V17.304H87.8V23ZM102.84 23H99.864V9.656H102.84V23ZM114.608 23V9.656H117.656V20.496H124.544V23H114.608ZM137.048 23H133.904L133.112 20.832H127.328L126.536 23H123.392L128.624 9.656H131.832L137.048 23ZM132.192 18.328L130.224 13.192L128.256 18.328H132.192ZM150.728 23L143.48 13.6V23H140.48V9.656H143.112L150.36 19.056V9.656H153.36V23H150.728ZM156.04 23V9.656H162.104C163.448 9.656 164.544 9.888 165.392 10.352C166.24 10.8 166.864 11.424 167.264 12.224C167.664 13.008 167.864 13.888 167.864 14.864C167.864 15.84 167.664 16.728 167.264 17.528C166.864 18.328 166.24 18.96 165.392 19.424C164.544 19.872 163.448 20.096 162.104 20.096H159.04V23H156.04ZM159.04 17.352H161.84C162.688 17.352 163.312 17.144 163.712 16.728C164.128 16.296 164.336 15.68 164.336 14.88C164.336 14.064 164.128 13.448 163.712 13.032C163.312 12.6 162.688 12.384 161.84 12.384H159.04V17.352ZM180.04 23H172.664V9.656H180.04V12.16H175.664V14.96H179.672V17.464H175.664V20.496H180.04V23Z" fill="#3B82F6"/>
  <path d="M9.79902 8.5C9.66549 8.5 9.55566 8.61016 9.55566 8.74414V16.0137C9.55566 17.8301 10.8018 19.46 12.6797 19.8652L21.0156 21.8379C21.334 21.8965 21.6348 21.6367 21.5762 21.3184L19.6035 12.9824C19.1982 11.1045 17.5684 9.85742 15.752 9.85742H9.79902V8.5Z" fill="#3B82F6"/>
  <path d="M9.79902 23.5C9.66549 23.5 9.55566 23.3906 9.55566 23.2559V15.9863C9.55566 14.1699 10.8018 12.54 12.6797 12.1348L21.0156 10.1621C21.334 10.1035 21.6348 10.3633 21.5762 10.6816L19.6035 19.0176C19.1982 20.8955 17.5684 22.1426 15.752 22.1426H9.79902V23.5Z" fill="#10B981"/>
</svg>